<svg width="29" height="29" viewBox="0 0 29 29" fill="none" xmlns="http://www.w3.org/2000/svg">
<path fill-rule="evenodd" clip-rule="evenodd" d="M8.57656 14.8251C8.57656 14.468 8.43442 14.1248 8.18213 13.8719C7.92902 13.6194 7.58604 13.4773 7.22877 13.4773H6.24873C5.89142 13.4773 5.54847 13.6194 5.29537 13.8719C5.04308 14.1248 4.90094 14.468 4.90094 14.8251V15.8053C4.90094 16.1624 5.04308 16.5054 5.29537 16.7585C5.54849 17.0108 5.89146 17.1529 6.24873 17.1529H7.22877C7.58608 17.1529 7.92903 17.0108 8.18213 16.7585C8.43442 16.5054 8.57656 16.1624 8.57656 15.8053V14.8251ZM7.35142 14.8251V15.8053C7.35142 15.8377 7.33849 15.8689 7.31511 15.8917C7.29255 15.9149 7.26137 15.9278 7.22876 15.9278H6.24872C6.21611 15.9278 6.18494 15.9149 6.16237 15.8917C6.13899 15.8689 6.12607 15.8377 6.12607 15.8053V14.8251C6.12607 14.7927 6.13899 14.7613 6.16237 14.7387C6.18493 14.7153 6.21611 14.7026 6.24872 14.7026H7.22876C7.26137 14.7026 7.29255 14.7153 7.31511 14.7387C7.33849 14.7613 7.35142 14.7927 7.35142 14.8251Z" fill="#E84E0E"/>
<path fill-rule="evenodd" clip-rule="evenodd" d="M8.57656 19.7258C8.57656 19.3687 8.43442 19.0257 8.18213 18.7726C7.92902 18.5203 7.58604 18.3782 7.22877 18.3782H6.24873C5.89142 18.3782 5.54847 18.5203 5.29537 18.7726C5.04308 19.0257 4.90094 19.3687 4.90094 19.7258V20.706C4.90094 21.0631 5.04308 21.4063 5.29537 21.6592C5.54849 21.9116 5.89146 22.0538 6.24873 22.0538H7.22877C7.58608 22.0538 7.92903 21.9116 8.18213 21.6592C8.43442 21.4062 8.57656 21.0631 8.57656 20.706V19.7258ZM7.35142 19.7258V20.706C7.35142 20.7384 7.33849 20.7698 7.31511 20.7924C7.29255 20.8157 7.26137 20.8285 7.22876 20.8285H6.24872C6.21611 20.8285 6.18494 20.8157 6.16237 20.7924C6.13899 20.7698 6.12607 20.7384 6.12607 20.706V19.7258C6.12607 19.6933 6.13899 19.6622 6.16237 19.6394C6.18493 19.6162 6.21611 19.6033 6.24872 19.6033H7.22876C7.26137 19.6033 7.29255 19.6162 7.31511 19.6394C7.33849 19.6622 7.35142 19.6933 7.35142 19.7258Z" fill="#E84E0E"/>
<path fill-rule="evenodd" clip-rule="evenodd" d="M13.4773 14.8251C13.4773 14.468 13.3352 14.1248 13.0829 13.8719C12.8298 13.6194 12.4868 13.4773 12.1297 13.4773H11.1495C10.7924 13.4773 10.4492 13.6194 10.1963 13.8719C9.94384 14.1248 9.8017 14.468 9.8017 14.8251V15.8053C9.8017 16.1624 9.94384 16.5054 10.1963 16.7585C10.4492 17.0108 10.7924 17.1529 11.1495 17.1529H12.1297C12.4868 17.1529 12.8298 17.0108 13.0829 16.7585C13.3352 16.5054 13.4773 16.1624 13.4773 15.8053V14.8251ZM12.2522 14.8251V15.8053C12.2522 15.8377 12.2392 15.8689 12.2161 15.8917C12.1933 15.9149 12.1621 15.9278 12.1297 15.9278H11.1495C11.1171 15.9278 11.0857 15.9149 11.0631 15.8917C11.0397 15.8689 11.027 15.8377 11.027 15.8053V14.8251C11.027 14.7927 11.0397 14.7613 11.0631 14.7387C11.0857 14.7153 11.1171 14.7026 11.1495 14.7026H12.1297C12.1621 14.7026 12.1933 14.7153 12.2161 14.7387C12.2392 14.7613 12.2522 14.7927 12.2522 14.8251Z" fill="#E84E0E"/>
<path fill-rule="evenodd" clip-rule="evenodd" d="M13.4773 19.7258C13.4773 19.3687 13.3352 19.0257 13.0829 18.7726C12.8298 18.5203 12.4868 18.3782 12.1297 18.3782H11.1495C10.7924 18.3782 10.4492 18.5203 10.1963 18.7726C9.94384 19.0257 9.8017 19.3687 9.8017 19.7258V20.706C9.8017 21.0631 9.94384 21.4063 10.1963 21.6592C10.4492 21.9116 10.7924 22.0538 11.1495 22.0538H12.1297C12.4868 22.0538 12.8298 21.9116 13.0829 21.6592C13.3352 21.4062 13.4773 21.0631 13.4773 20.706V19.7258ZM12.2522 19.7258V20.706C12.2522 20.7384 12.2392 20.7698 12.2161 20.7924C12.1933 20.8157 12.1621 20.8285 12.1297 20.8285H11.1495C11.1171 20.8285 11.0857 20.8157 11.0631 20.7924C11.0397 20.7698 11.027 20.7384 11.027 20.706V19.7258C11.027 19.6933 11.0397 19.6622 11.0631 19.6394C11.0857 19.6162 11.1171 19.6033 11.1495 19.6033H12.1297C12.1621 19.6033 12.1933 19.6162 12.2161 19.6394C12.2392 19.6622 12.2522 19.6933 12.2522 19.7258Z" fill="#E84E0E"/>
<path fill-rule="evenodd" clip-rule="evenodd" d="M18.3785 14.8251C18.3785 14.468 18.2364 14.1248 17.9839 13.8719C17.731 13.6194 17.3878 13.4773 17.0307 13.4773H16.0505C15.6934 13.4773 15.3504 13.6194 15.0973 13.8719C14.845 14.1248 14.7029 14.468 14.7029 14.8251V15.8053C14.7029 16.1624 14.845 16.5054 15.0973 16.7585C15.3504 17.0108 15.6934 17.1529 16.0505 17.1529H17.0307C17.3878 17.1529 17.731 17.0108 17.9839 16.7585C18.2364 16.5054 18.3785 16.1624 18.3785 15.8053V14.8251ZM17.1531 14.8251V15.8053C17.1531 15.8377 17.1404 15.8689 17.117 15.8917C17.0945 15.9149 17.0631 15.9278 17.0307 15.9278H16.0504C16.018 15.9278 15.9869 15.9149 15.9641 15.8917C15.9409 15.8689 15.928 15.8377 15.928 15.8053V14.8251C15.928 14.7927 15.9409 14.7613 15.9641 14.7387C15.9869 14.7153 16.018 14.7026 16.0504 14.7026H17.0307C17.0631 14.7026 17.0945 14.7153 17.117 14.7387C17.1404 14.7613 17.1531 14.7927 17.1531 14.8251Z" fill="#E84E0E"/>
<path fill-rule="evenodd" clip-rule="evenodd" d="M18.3785 19.7258C18.3785 19.3687 18.2364 19.0257 17.9839 18.7726C17.731 18.5203 17.3878 18.3782 17.0307 18.3782H16.0505C15.6934 18.3782 15.3504 18.5203 15.0973 18.7726C14.845 19.0257 14.7029 19.3687 14.7029 19.7258V20.706C14.7029 21.0631 14.845 21.4063 15.0973 21.6592C15.3504 21.9116 15.6934 22.0538 16.0505 22.0538H17.0307C17.3878 22.0538 17.731 21.9116 17.9839 21.6592C18.2364 21.4062 18.3785 21.0631 18.3785 20.706V19.7258ZM17.1531 19.7258V20.706C17.1531 20.7384 17.1404 20.7698 17.117 20.7924C17.0945 20.8157 17.0631 20.8285 17.0307 20.8285H16.0504C16.018 20.8285 15.9869 20.8157 15.9641 20.7924C15.9409 20.7698 15.928 20.7384 15.928 20.706V19.7258C15.928 19.6933 15.9409 19.6622 15.9641 19.6394C15.9869 19.6162 16.018 19.6033 16.0504 19.6033H17.0307C17.0631 19.6033 17.0945 19.6162 17.117 19.6394C17.1404 19.6622 17.1531 19.6933 17.1531 19.7258Z" fill="#E84E0E"/>
<path fill-rule="evenodd" clip-rule="evenodd" d="M23.2792 14.8251C23.2792 14.468 23.1371 14.1248 22.8848 13.8719C22.6317 13.6194 22.2887 13.4773 21.9314 13.4773H20.9514C20.5941 13.4773 20.2511 13.6194 19.998 13.8719C19.7457 14.1248 19.6036 14.468 19.6036 14.8251V15.8053C19.6036 16.1624 19.7457 16.5054 19.998 16.7585C20.2511 17.0108 20.5941 17.1529 20.9514 17.1529H21.9314C22.2887 17.1529 22.6317 17.0108 22.8848 16.7585C23.1371 16.5054 23.2792 16.1624 23.2792 15.8053V14.8251ZM22.0541 14.8251V15.8053C22.0541 15.8377 22.0411 15.8689 22.0177 15.8917C21.9952 15.9149 21.964 15.9278 21.9314 15.9278H20.9514C20.9187 15.9278 20.8876 15.9149 20.865 15.8917C20.8416 15.8689 20.8287 15.8377 20.8287 15.8053V14.8251C20.8287 14.7927 20.8416 14.7613 20.865 14.7387C20.8876 14.7153 20.9187 14.7026 20.9514 14.7026H21.9314C21.964 14.7026 21.9952 14.7153 22.0177 14.7387C22.0411 14.7613 22.0541 14.7927 22.0541 14.8251Z" fill="#E84E0E"/>
<path fill-rule="evenodd" clip-rule="evenodd" d="M23.2792 19.7258C23.2792 19.3687 23.1371 19.0257 22.8848 18.7726C22.6317 18.5203 22.2887 18.3782 21.9314 18.3782H20.9514C20.5941 18.3782 20.2511 18.5203 19.998 18.7726C19.7457 19.0257 19.6036 19.3687 19.6036 19.7258V20.706C19.6036 21.0631 19.7457 21.4063 19.998 21.6592C20.2511 21.9116 20.5941 22.0538 20.9514 22.0538H21.9314C22.2887 22.0538 22.6317 21.9116 22.8848 21.6592C23.1371 21.4062 23.2792 21.0631 23.2792 20.706V19.7258ZM22.0541 19.7258V20.706C22.0541 20.7384 22.0411 20.7698 22.0177 20.7924C21.9952 20.8157 21.964 20.8285 21.9314 20.8285H20.9514C20.9187 20.8285 20.8876 20.8157 20.865 20.7924C20.8416 20.7698 20.8287 20.7384 20.8287 20.706V19.7258C20.8287 19.6933 20.8416 19.6622 20.865 19.6394C20.8876 19.6162 20.9187 19.6033 20.9514 19.6033H21.9314C21.964 19.6033 21.9952 19.6162 22.0177 19.6394C22.0411 19.6622 22.0541 19.6933 22.0541 19.7258Z" fill="#E84E0E"/>
<path fill-rule="evenodd" clip-rule="evenodd" d="M3.06312 8.57647H25.1171C25.4553 8.57647 25.7297 8.30202 25.7297 7.96379C25.7297 7.62576 25.4553 7.35132 25.1171 7.35132H3.06312C2.72488 7.35132 2.45044 7.62576 2.45044 7.96379C2.45044 8.30202 2.72488 8.57647 3.06312 8.57647Z" fill="#E84E0E"/>
<path fill-rule="evenodd" clip-rule="evenodd" d="M12.2522 2.4503V1.83657C12.2522 1.34942 12.4459 0.881947 12.79 0.537801C13.1344 0.193413 13.6019 0 14.0888 0H14.0913C14.5782 0 15.0457 0.193423 15.39 0.537801C15.7342 0.881984 15.9278 1.34944 15.9278 1.83657V2.4503H19.6035V1.83657C19.6035 1.34942 19.7971 0.881947 20.1413 0.537801C20.4857 0.193413 20.9531 0 21.4401 0H21.4425C21.9295 0 22.3969 0.193423 22.7413 0.537801C23.0855 0.881984 23.2791 1.34944 23.2791 1.83657V2.4503H25.1169C25.9292 2.4503 26.7084 2.77315 27.2831 3.34726C27.8571 3.92177 28.1799 4.701 28.1799 5.51348V25.1168C28.1799 25.9291 27.857 26.7083 27.2831 27.283C26.7084 27.8569 25.9292 28.1798 25.1169 28.1798H3.06298C2.25071 28.1798 1.47147 27.8569 0.896755 27.283C0.322828 26.7083 0 25.9291 0 25.1168V5.51348C0 4.701 0.322849 3.92182 0.896755 3.34726C1.47147 2.77312 2.25071 2.4503 3.06298 2.4503H4.9008V1.83657C4.9008 1.34942 5.09443 0.881947 5.4386 0.537801C5.78299 0.193413 6.25045 0 6.73737 0H6.73983C7.22677 0 7.69424 0.193423 8.0386 0.537801C8.38278 0.881984 8.5764 1.34944 8.5764 1.83657V2.4503H12.2522ZM1.22527 25.117C1.73744 25.5018 2.37328 25.7297 3.06309 25.7297H25.117C25.8068 25.7297 26.4427 25.5018 26.9548 25.117C26.9548 25.6046 26.7612 26.0721 26.4164 26.4164C26.072 26.7612 25.6046 26.9548 25.117 26.9548H3.06309C2.57553 26.9548 2.10805 26.7612 1.7637 26.4164C1.4189 26.072 1.22527 25.6046 1.22527 25.117ZM26.9548 22.6665C26.9548 23.6816 26.1321 24.5043 25.117 24.5043H3.06309C2.04798 24.5043 1.22527 23.6816 1.22527 22.6665V11.0273H26.9548V22.6665ZM4.90092 3.67597H3.06309C2.57553 3.67597 2.10805 3.86939 1.7637 4.2144C1.4189 4.55858 1.22527 5.02604 1.22527 5.5138V9.80192H26.9548V5.5138C26.9548 5.02603 26.7612 4.5586 26.4164 4.2144C26.072 3.8694 25.6046 3.67597 25.117 3.67597H23.2792V4.2897C23.2792 4.77684 23.0856 5.24432 22.7414 5.58847C22.397 5.93285 21.9295 6.12627 21.4426 6.12627H21.4402C20.9532 6.12627 20.4858 5.93284 20.1414 5.58847C19.7972 5.24428 19.6036 4.77683 19.6036 4.2897V3.67597H15.9279V4.2897C15.9279 4.77684 15.7343 5.24432 15.3901 5.58847C15.0458 5.93285 14.5783 6.12627 14.0914 6.12627H14.0889C13.602 6.12627 13.1345 5.93284 12.7902 5.58847C12.446 5.24428 12.2523 4.77683 12.2523 4.2897V3.67597H8.57669V4.2897C8.57669 4.77684 8.38307 5.24432 8.03889 5.58847C7.69451 5.93285 7.22705 6.12627 6.74013 6.12627H6.73767C6.25073 6.12627 5.78326 5.93284 5.4389 5.58847C5.09472 5.24428 4.9011 4.77683 4.9011 4.2897L4.90092 3.67597ZM6.73996 1.22546H6.73749C6.57525 1.22546 6.41957 1.28987 6.30491 1.40432C6.19045 1.51898 6.12605 1.67446 6.12605 1.83691V4.28967C6.12605 4.45213 6.19046 4.6076 6.30491 4.72226C6.41957 4.83672 6.57525 4.90112 6.73749 4.90112H6.73996C6.9022 4.90112 7.05789 4.83671 7.17254 4.72226C7.287 4.6076 7.3514 4.45213 7.3514 4.28967V1.83691C7.3514 1.67446 7.28699 1.51898 7.17254 1.40432C7.05789 1.28987 6.9022 1.22546 6.73996 1.22546ZM21.4426 1.22546H21.4401C21.2779 1.22546 21.1222 1.28987 21.0075 1.40432C20.8931 1.51898 20.8287 1.67446 20.8287 1.83691V4.28967C20.8287 4.45213 20.8931 4.6076 21.0075 4.72226C21.1222 4.83672 21.2779 4.90112 21.4401 4.90112H21.4426C21.6048 4.90112 21.7605 4.83671 21.8752 4.72226C21.9896 4.6076 22.054 4.45213 22.054 4.28967V1.83691C22.054 1.67446 21.9896 1.51898 21.8752 1.40432C21.7605 1.28987 21.6048 1.22546 21.4426 1.22546ZM14.0913 1.22546H14.0888C13.9266 1.22546 13.7709 1.28987 13.6562 1.40432C13.5418 1.51898 13.4774 1.67446 13.4774 1.83691V4.28967C13.4774 4.45213 13.5418 4.6076 13.6562 4.72226C13.7709 4.83672 13.9266 4.90112 14.0888 4.90112H14.0913C14.2535 4.90112 14.4092 4.83671 14.5239 4.72226C14.6383 4.6076 14.7027 4.45213 14.7027 4.28967V1.83691C14.7027 1.67446 14.6383 1.51898 14.5239 1.40432C14.4092 1.28987 14.2535 1.22546 14.0913 1.22546Z" fill="#E84E0E"/>
</svg>
