<svg width="25" height="28" viewBox="0 0 25 28" fill="none" xmlns="http://www.w3.org/2000/svg">
<path d="M11.9406 28C10.2112 28 9.05831 27.3411 9.05831 26.3531V15.6472C9.05831 15.1943 9.42883 14.8238 9.88176 14.8238H11.1171V12.7649C11.1171 11.4061 12.229 10.2942 13.5879 10.2942H18.1174C18.9409 10.2942 19.6822 9.80017 20.0117 9.05883L2.88228 9.05912C1.23537 9.05912 0 7.12382 0 4.52956C0 1.93529 1.23537 0 2.88228 0H3.12929H3.29387H21.8233C23.4702 0 24.7056 1.93529 24.7056 4.52956C24.7056 7.12382 23.4702 9.05912 21.8233 9.05912H21.7408C21.3703 10.706 19.888 11.9414 18.1172 11.9414H13.5883C13.1353 11.9414 12.7648 12.3119 12.7648 12.7648V14.8237H14.0002C14.4531 14.8237 14.8236 15.1942 14.8236 15.6471V26.353C14.8236 27.3413 13.6707 27.9999 11.9411 27.9999L11.9406 28ZM10.7055 26.1471C10.9115 26.2296 11.323 26.3531 11.9409 26.3531C12.5584 26.3531 12.9703 26.2296 13.1762 26.1471L13.176 19.3532H10.7052L10.7055 26.1471ZM10.7055 17.706H13.1762V16.4706H10.7055V17.706ZM20.9996 7.41184H21.8231C22.3171 7.41184 23.0585 6.2589 23.0585 4.52956C23.0585 2.80023 22.3174 1.64729 21.8231 1.64729H5.14662C5.5585 2.42971 5.76415 3.41773 5.76415 4.52956C5.76415 5.6414 5.51713 6.62949 5.14662 7.41184H20.9996ZM2.88199 1.64729C2.38796 1.64729 1.64662 2.80023 1.64662 4.52956C1.64662 6.2589 2.38765 7.41184 2.88199 7.41184C3.37601 7.41184 4.11735 6.2589 4.11735 4.52956C4.11735 2.80023 3.37632 1.64729 2.88199 1.64729ZM4.11735 18.5296C3.6644 18.5296 3.2939 18.1591 3.2939 17.7062V11.1178C3.2939 10.6648 3.66442 10.2943 4.11735 10.2943C4.57029 10.2943 4.94081 10.6649 4.94081 11.1178V17.7062C4.94081 18.1588 4.57029 18.5296 4.11735 18.5296ZM1.64662 16.4708C1.19366 16.4708 0.823162 16.1003 0.823162 15.6474V11.1178C0.823162 10.6648 1.19368 10.2943 1.64662 10.2943C2.09957 10.2943 2.47007 10.6649 2.47007 11.1178V15.6474C2.47036 16.1 2.09955 16.4708 1.64662 16.4708ZM6.58801 14.0001C6.13506 14.0001 5.76456 13.6296 5.76456 13.1766V11.1178C5.76456 10.6648 6.13508 10.2943 6.58801 10.2943C7.04097 10.2943 7.41147 10.6649 7.41147 11.1178V13.1766C7.41147 13.6296 7.04095 14.0001 6.58801 14.0001ZM2.88199 5.76479C2.42903 5.76479 2.05853 5.39426 2.05853 4.94133V4.11787C2.05853 3.66492 2.42905 3.29442 2.88199 3.29442C3.33494 3.29442 3.70544 3.66494 3.70544 4.11787V4.94133C3.70544 5.39429 3.33492 5.76479 2.88199 5.76479ZM20.5879 4.52942H7.82316C7.37021 4.52942 6.99971 4.1589 6.99971 3.70596C6.99971 3.25303 7.37023 2.88251 7.82316 2.88251H20.5879C21.0408 2.88251 21.4113 3.25303 21.4113 3.70596C21.4113 4.1589 21.0408 4.52942 20.5879 4.52942Z" fill="#E84E0E"/>
</svg>
