<svg width="35" height="34" viewBox="0 0 35 34" fill="none" xmlns="http://www.w3.org/2000/svg">
<path fill-rule="evenodd" clip-rule="evenodd" d="M0.000125645 11.32C0.000125645 10.9959 0.262605 10.7334 0.586708 10.7334H10.5603V11.9066H1.17317V32.4401H0L0.000125645 11.32Z" fill="#E84E0E"/>
<path fill-rule="evenodd" clip-rule="evenodd" d="M34.0267 10.1464C34.0267 9.82254 33.764 9.55981 33.4401 9.55981H23.4666V10.7332H32.853V32.4397H34.0264L34.0267 10.1464Z" fill="#E84E0E"/>
<path fill-rule="evenodd" clip-rule="evenodd" d="M24.6403 0.759923C24.6403 0.435819 24.3775 0.17334 24.0534 0.17334H9.97342C9.64956 0.17334 9.38684 0.435819 9.38684 0.759923V33.0264H10.5603V1.34638H23.4667V33.0264H24.6401L24.6403 0.759923Z" fill="#E84E0E"/>
<path fill-rule="evenodd" clip-rule="evenodd" d="M12.9067 0.17334H14.0802V33.0269H12.9067V0.17334Z" fill="#E84E0E"/>
<path fill-rule="evenodd" clip-rule="evenodd" d="M16.4267 0.17334H17.6001V33.0269H16.4267V0.17334Z" fill="#E84E0E"/>
<path fill-rule="evenodd" clip-rule="evenodd" d="M19.9467 0.17334H21.1201V33.0269H19.9467V0.17334Z" fill="#E84E0E"/>
<path fill-rule="evenodd" clip-rule="evenodd" d="M27.5732 15.4264C27.8973 15.4264 28.16 15.1639 28.16 14.8398V13.6664C28.16 13.3426 27.8973 13.0798 27.5732 13.0798C27.2493 13.0798 26.9866 13.3426 26.9866 13.6664V14.8398C26.9866 15.1639 27.2493 15.4264 27.5732 15.4264Z" fill="#E84E0E"/>
<path fill-rule="evenodd" clip-rule="evenodd" d="M29.9203 15.4264C30.2441 15.4264 30.5068 15.1639 30.5068 14.8398V13.6664C30.5068 13.3426 30.2441 13.0798 29.9203 13.0798C29.5962 13.0798 29.3334 13.3426 29.3334 13.6664V14.8398C29.3334 15.1639 29.5962 15.4264 29.9203 15.4264Z" fill="#E84E0E"/>
<path fill-rule="evenodd" clip-rule="evenodd" d="M27.5732 20.12C27.8973 20.12 28.16 19.8573 28.16 19.5334V18.36C28.16 18.0359 27.8973 17.7734 27.5732 17.7734C27.2493 17.7734 26.9866 18.0359 26.9866 18.36V19.5334C26.9866 19.8573 27.2493 20.12 27.5732 20.12Z" fill="#E84E0E"/>
<path fill-rule="evenodd" clip-rule="evenodd" d="M29.9203 20.12C30.2441 20.12 30.5068 19.8573 30.5068 19.5334V18.36C30.5068 18.0359 30.2441 17.7734 29.9203 17.7734C29.5962 17.7734 29.3334 18.0359 29.3334 18.36V19.5334C29.3334 19.8573 29.5962 20.12 29.9203 20.12Z" fill="#E84E0E"/>
<path fill-rule="evenodd" clip-rule="evenodd" d="M27.5732 24.8136C27.8973 24.8136 28.16 24.5509 28.16 24.2268V23.0536C28.16 22.7295 27.8973 22.4668 27.5732 22.4668C27.2493 22.4668 26.9866 22.7295 26.9866 23.0536V24.2268C26.9866 24.5509 27.2493 24.8136 27.5732 24.8136Z" fill="#E84E0E"/>
<path fill-rule="evenodd" clip-rule="evenodd" d="M29.9203 24.8136C30.2441 24.8136 30.5068 24.5509 30.5068 24.2268V23.0536C30.5068 22.7295 30.2441 22.4668 29.9203 22.4668C29.5962 22.4668 29.3334 22.7295 29.3334 23.0536V24.2268C29.3334 24.5509 29.5962 24.8136 29.9203 24.8136Z" fill="#E84E0E"/>
<path fill-rule="evenodd" clip-rule="evenodd" d="M27.5732 29.5063C27.8973 29.5063 28.16 29.2438 28.16 28.9197V27.7463C28.16 27.4224 27.8973 27.1597 27.5732 27.1597C27.2493 27.1597 26.9866 27.4224 26.9866 27.7463V28.9197C26.9866 29.2438 27.2493 29.5063 27.5732 29.5063Z" fill="#E84E0E"/>
<path fill-rule="evenodd" clip-rule="evenodd" d="M29.9203 29.5063C30.2441 29.5063 30.5068 29.2438 30.5068 28.9197V27.7463C30.5068 27.4224 30.2441 27.1597 29.9203 27.1597C29.5962 27.1597 29.3334 27.4224 29.3334 27.7463V28.9197C29.3334 29.2438 29.5962 29.5063 29.9203 29.5063Z" fill="#E84E0E"/>
<path fill-rule="evenodd" clip-rule="evenodd" d="M0.00012207 14.2534H10.5601V15.4268H0.00012207V14.2534Z" fill="#E84E0E"/>
<path fill-rule="evenodd" clip-rule="evenodd" d="M0.00012207 17.7734H10.5601V18.9469H0.00012207V17.7734Z" fill="#E84E0E"/>
<path fill-rule="evenodd" clip-rule="evenodd" d="M0.00012207 21.2935H10.5601V22.4669H0.00012207V21.2935Z" fill="#E84E0E"/>
<path fill-rule="evenodd" clip-rule="evenodd" d="M0.00012207 24.8135H10.5601V25.9869H0.00012207V24.8135Z" fill="#E84E0E"/>
<path fill-rule="evenodd" clip-rule="evenodd" d="M0.00012207 28.3335H10.5601V29.5069H0.00012207V28.3335Z" fill="#E84E0E"/>
<path fill-rule="evenodd" clip-rule="evenodd" d="M33.4402 33.0264C33.7641 33.0264 34.0268 32.7639 34.0268 32.4398C34.0268 32.1157 33.7641 31.8533 33.4402 31.8533H0.586705C0.262601 31.8533 0.00012207 32.1157 0.00012207 32.4398C0.00012207 32.7639 0.262601 33.0264 0.586705 33.0264H33.4402Z" fill="#E84E0E"/>
</svg>
