<svg width="7" height="19" viewBox="0 0 7 19" fill="none" xmlns="http://www.w3.org/2000/svg">
<path d="M5.98037 2.47953C5.98037 1.11224 4.86823 0 3.5012 0C2.13364 0 1.02087 1.11227 1.02087 2.47953C1.02087 3.8468 2.13377 4.95933 3.5012 4.95933C4.86836 4.95946 5.98037 3.84706 5.98037 2.47953ZM2.03936 2.47953C2.03936 1.67391 2.69495 1.01855 3.5011 1.01855C4.30646 1.01855 4.96168 1.67391 4.96168 2.47953C4.96168 3.28556 4.30646 3.94061 3.5011 3.94061C2.69495 3.94074 2.03936 3.28552 2.03936 2.47953Z" fill="white"/>
<path d="M0 8.84581V12.5885C0 12.8697 0.228011 13.0977 0.509689 13.0977H1.88394V17.7904C1.88394 18.0719 2.11195 18.3001 2.39363 18.3001C2.67478 18.3001 2.90279 18.0721 2.90279 17.7904L2.90266 12.5888C2.90266 12.3072 2.67465 12.0791 2.3935 12.0791H1.01889V8.84601C1.01889 7.47035 2.12961 6.34922 3.50125 6.33094C4.87201 6.34921 5.98118 7.47035 5.98118 8.84601V12.0791H4.60694C4.3254 12.0791 4.09725 12.3071 4.09725 12.5888V17.7907C4.09725 18.0723 4.32526 18.3004 4.60694 18.3004C4.88809 18.3004 5.1161 18.0724 5.1161 17.7907L5.11623 13.0977H6.49084C6.77199 13.0977 7 12.8697 7 12.5885V8.84614C7 6.93391 5.47419 5.37157 3.57649 5.31393C3.56272 5.31277 3.54908 5.31226 3.53493 5.31226H3.46724C3.45348 5.31226 3.43945 5.31264 3.42607 5.31393C1.52734 5.3717 0.000250311 6.93408 0.000250311 8.84614L0 8.84581Z" fill="white"/>
</svg>
