<svg width="37" height="37" viewBox="0 0 37 37" fill="none" xmlns="http://www.w3.org/2000/svg">
<path d="M19.71 0V1.92019C27.9393 1.92019 34.5901 8.57082 34.5901 16.8003H36.5103C36.5103 7.53367 28.9771 0.000171336 19.7102 0.000171336L19.71 0ZM7.22988 2.47502L0.314738 9.39017L0 9.70524L0.0297994 10.1552C0.471763 15.7146 3.61243 22.2128 8.95445 27.5554C14.2965 32.898 20.7951 36.0235 26.3546 36.4655L26.7895 36.5103L27.1046 36.1956L33.3448 29.9555L34.0348 29.2805L26.4296 21.6752L25.7546 22.3502L21.9747 26.1304C19.6571 24.8092 17.5012 23.2771 15.3596 21.1352C13.2174 18.9934 11.6859 16.8532 10.3644 14.5352L14.1446 10.7553L14.8346 10.0803L7.22988 2.47502ZM19.71 4.80004V6.72023C25.2885 6.72023 29.7901 11.2216 29.7901 16.8003H31.7103C31.7103 10.1841 26.3263 4.80021 19.7102 4.80021L19.71 4.80004ZM7.22988 5.19012L12.12 10.0802L8.47515 13.7101L7.96488 14.2204L8.31008 14.8502C9.77598 17.5418 11.5478 20.0379 14.0101 22.5003C16.4725 24.9626 18.9538 26.7344 21.6451 28.2003L22.2753 28.5455L22.7852 28.0352L26.4301 24.3904L31.3202 29.2805L26.1003 34.4854C21.2156 33.9754 15.2274 31.113 10.3047 26.1905C5.37784 21.2636 2.53116 15.2824 2.02484 10.3958L7.22988 5.19012ZM19.71 9.60007V11.5203C22.6373 11.5203 24.9899 13.8727 24.9899 16.8001H26.9101C26.9101 12.8351 23.675 9.60007 19.71 9.60007Z" fill="white"/>
</svg>
