<svg width="20" height="29" viewBox="0 0 20 29" fill="none" xmlns="http://www.w3.org/2000/svg">
<path fill-rule="evenodd" clip-rule="evenodd" d="M11.3792 27.7347C16.4539 20.9659 20 15.6789 20 10.3927C20 4.66185 15.5557 0 9.99953 0C4.44412 0 0 4.66232 0 10.3927C0 15.6806 3.50976 20.9689 8.61462 27.7393C9.30754 28.6579 10.6891 28.6553 11.379 27.735L11.3792 27.7347ZM10.6983 24.2661C14.6226 18.8752 17.3958 14.7165 17.3958 10.5576C17.3958 6.17366 14.1088 2.60754 9.99994 2.60754C5.89084 2.60754 2.60375 6.17366 2.60375 10.5576C2.60375 14.717 5.34815 18.8759 9.29794 24.2679C9.64477 24.7418 10.3529 24.7403 10.6983 24.2658V24.2661Z" fill="#E84E0E"/>
<path fill-rule="evenodd" clip-rule="evenodd" d="M10.0003 15.2467C12.6905 15.2467 14.8712 13.0973 14.8712 10.4457C14.8712 7.79413 12.6905 5.64441 10.0003 5.64441C7.31017 5.64441 5.12915 7.79413 5.12915 10.4457C5.12915 13.0973 7.31017 15.2467 10.0003 15.2467ZM10.0003 12.6766C11.2512 12.6766 12.2651 11.6772 12.2651 10.4446C12.2651 9.21165 11.2512 8.21226 10.0003 8.21226C8.7495 8.21226 7.73594 9.21165 7.73594 10.4446C7.73594 11.6772 8.7495 12.6766 10.0003 12.6766Z" fill="#E84E0E"/>
</svg>
