<svg width="32" height="30" viewBox="0 0 32 30" fill="none" xmlns="http://www.w3.org/2000/svg">
<path d="M20.74 29.4299H12.2V23.3299H8.54V29.4299H0V0.149902H20.74V29.4299ZM13.42 28.2099H19.52V1.3699H1.22V28.2099H7.32V22.1099H13.42V28.2099Z" fill="#E84E0E"/>
<path d="M9.14999 19.06H3.04999V12.96H9.14999V19.06ZM4.26999 17.84H7.92999V14.18H4.26999V17.84Z" fill="#E84E0E"/>
<path d="M17.69 19.06H11.59V12.96H17.69V19.06ZM12.81 17.84H16.47V14.18H12.81V17.84Z" fill="#E84E0E"/>
<path d="M28.67 19.06H22.57V12.96H28.67V19.06ZM23.79 17.84H27.45V14.18H23.79V17.84Z" fill="#E84E0E"/>
<path d="M28.67 26.3798H22.57V20.2798H28.67V26.3798ZM23.79 25.1598H27.45V21.4998H23.79V25.1598Z" fill="#E84E0E"/>
<path d="M9.14999 10.5199H3.04999V4.41992H9.14999V10.5199ZM4.26999 9.29992H7.92999V5.63992H4.26999V9.29992Z" fill="#E84E0E"/>
<path d="M17.69 10.5199H11.59V4.41992H17.69V10.5199ZM12.81 9.29992H16.47V5.63992H12.81V9.29992Z" fill="#E84E0E"/>
<path d="M31.72 29.4299H19.52V9.90991H31.72V29.4299ZM20.74 28.2099H30.5V11.1299H20.74V28.2099Z" fill="#E84E0E"/>
</svg>
