<svg width="33" height="27" viewBox="0 0 33 27" fill="none" xmlns="http://www.w3.org/2000/svg">
<path d="M33 25.5749L33 0.824901C33 0.606131 32.9131 0.396192 32.7584 0.241508C32.6037 0.0868224 32.3938 -9.9242e-05 32.175 -9.92287e-05L14.025 -9.81265e-05L14.025 1.6499L18.15 1.6499L18.15 17.3249L19.8 17.3249L19.8 11.5499L23.925 11.5499L23.925 9.8999L19.8 9.8999L19.8 1.6499L31.35 1.6499L31.35 9.8999L27.225 9.8999L27.225 11.5499L31.35 11.5499L31.35 24.7499L19.8 24.7499L19.8 20.6249L18.15 20.6249L18.15 24.7499L6.6 24.7499L6.6 7.4249C6.6 7.20613 6.51308 6.99619 6.35839 6.84151C6.20371 6.68682 5.99377 6.5999 5.775 6.5999L1.65 6.5999L1.65 1.6499L10.725 1.6499L10.725 -9.79261e-05L0.824999 -9.73249e-05C0.606228 -9.73116e-05 0.396291 0.0868225 0.241606 0.24151C0.0869212 0.396196 -8.11556e-07 0.606133 -8.04673e-07 0.824903L-2.59572e-08 25.5749C-1.16229e-08 26.0305 0.369411 26.3999 0.825 26.3999L32.175 26.3999C32.3938 26.3999 32.6037 26.313 32.7584 26.1583C32.9131 26.0036 33 25.7937 33 25.5749ZM4.95 14.8499L4.95 16.4999L1.65 16.4999L1.65 14.8499L4.95 14.8499ZM1.65 13.1999L1.65 11.5499L4.95 11.5499L4.95 13.1999L1.65 13.1999ZM4.95 18.1499L4.95 19.7999L1.65 19.7999L1.65 18.1499L4.95 18.1499ZM4.95 8.2499L4.95 9.8999L1.65 9.8999L1.65 8.2499L4.95 8.2499ZM1.65 24.7499L1.65 21.4499L4.95 21.4499L4.95 24.7499L1.65 24.7499Z" fill="#E84E0E"/>
</svg>
